<svg width="48" height="49" viewBox="0 0 48 49" fill="none" xmlns="http://www.w3.org/2000/svg">
<g clip-path="url(#clip0_3459_963)">
<path d="M30.804 42.5V28.568H35.47L36.168 23.152H30.804V19.696C30.804 18.128 31.24 17.058 33.488 17.058H36.356V12.214C34.9676 12.0667 33.5722 11.9952 32.176 12C28.042 12 25.212 14.524 25.212 19.16V23.152H20.536V28.568H25.212V42.5H8C7.46957 42.5 6.96086 42.2893 6.58579 41.9142C6.21071 41.5391 6 41.0304 6 40.5V8.5C6 7.96957 6.21071 7.46086 6.58579 7.08579C6.96086 6.71071 7.46957 6.5 8 6.5H40C40.5304 6.5 41.0391 6.71071 41.4142 7.08579C41.7893 7.46086 42 7.96957 42 8.5V40.5C42 41.0304 41.7893 41.5391 41.4142 41.9142C41.0391 42.2893 40.5304 42.5 40 42.5H30.804Z" fill="#D3A562"/>
</g>
<defs>
<clipPath id="clip0_3459_963">
<rect width="48" height="48" fill="white" transform="translate(0 0.5)"/>
</clipPath>
</defs>
</svg>
