<svg width="24" height="24" viewBox="0 0 24 24" fill="none" xmlns="http://www.w3.org/2000/svg">
<path d="M10.9907 2C15.9545 2 19.983 6.032 19.983 11C19.983 15.968 15.9545 20 10.9907 20C6.02688 20 1.99829 15.968 1.99829 11C1.99829 6.032 6.02688 2 10.9907 2ZM10.9907 18C14.8544 18 17.9847 14.867 17.9847 11C17.9847 7.132 14.8544 4 10.9907 4C7.12595 4 3.9966 7.132 3.9966 11C3.9966 14.867 7.12595 18 10.9907 18ZM19.4685 18.071L22.2951 20.899L20.8813 22.314L18.0557 19.485L19.4685 18.071Z" fill="#888C94"/>
</svg>
