<svg width="48" height="49" viewBox="0 0 48 49" fill="none" xmlns="http://www.w3.org/2000/svg">
<path d="M24 4.5C29.434 4.5 30.112 4.52 32.244 4.62C34.374 4.72 35.824 5.054 37.1 5.55C38.42 6.058 39.532 6.746 40.644 7.856C41.661 8.85579 42.4479 10.0652 42.95 11.4C43.444 12.674 43.78 14.126 43.88 16.256C43.974 18.388 44 19.066 44 24.5C44 29.934 43.98 30.612 43.88 32.744C43.78 34.874 43.444 36.324 42.95 37.6C42.4494 38.9356 41.6622 40.1452 40.644 41.144C39.6439 42.1606 38.4346 42.9475 37.1 43.45C35.826 43.944 34.374 44.28 32.244 44.38C30.112 44.474 29.434 44.5 24 44.5C18.566 44.5 17.888 44.48 15.756 44.38C13.626 44.28 12.176 43.944 10.9 43.45C9.56465 42.9489 8.35505 42.1619 7.356 41.144C6.33881 40.1444 5.55186 38.9349 5.05 37.6C4.554 36.326 4.22 34.874 4.12 32.744C4.026 30.612 4 29.934 4 24.5C4 19.066 4.02 18.388 4.12 16.256C4.22 14.124 4.554 12.676 5.05 11.4C5.55047 10.0644 6.33761 8.85464 7.356 7.856C8.35534 6.83846 9.56486 6.05146 10.9 5.55C12.176 5.054 13.624 4.72 15.756 4.62C17.888 4.526 18.566 4.5 24 4.5ZM24 14.5C21.3478 14.5 18.8043 15.5536 16.9289 17.4289C15.0536 19.3043 14 21.8478 14 24.5C14 27.1522 15.0536 29.6957 16.9289 31.5711C18.8043 33.4464 21.3478 34.5 24 34.5C26.6522 34.5 29.1957 33.4464 31.0711 31.5711C32.9464 29.6957 34 27.1522 34 24.5C34 21.8478 32.9464 19.3043 31.0711 17.4289C29.1957 15.5536 26.6522 14.5 24 14.5ZM37 14C37 13.337 36.7366 12.7011 36.2678 12.2322C35.7989 11.7634 35.163 11.5 34.5 11.5C33.837 11.5 33.2011 11.7634 32.7322 12.2322C32.2634 12.7011 32 13.337 32 14C32 14.663 32.2634 15.2989 32.7322 15.7678C33.2011 16.2366 33.837 16.5 34.5 16.5C35.163 16.5 35.7989 16.2366 36.2678 15.7678C36.7366 15.2989 37 14.663 37 14ZM24 18.5C25.5913 18.5 27.1174 19.1321 28.2426 20.2574C29.3679 21.3826 30 22.9087 30 24.5C30 26.0913 29.3679 27.6174 28.2426 28.7426C27.1174 29.8679 25.5913 30.5 24 30.5C22.4087 30.5 20.8826 29.8679 19.7574 28.7426C18.6321 27.6174 18 26.0913 18 24.5C18 22.9087 18.6321 21.3826 19.7574 20.2574C20.8826 19.1321 22.4087 18.5 24 18.5Z" fill="#D3A562"/>
</svg>
