<svg width="69" height="26" viewBox="0 0 69 26" fill="none" xmlns="http://www.w3.org/2000/svg">
<g clip-path="url(#clip0_3459_987)">
<path fill-rule="evenodd" clip-rule="evenodd" d="M64.9485 10.407C64.9485 9.676 65.5255 9.079 66.2185 9.079C66.9295 9.079 67.4875 9.676 67.4875 10.407C67.4875 11.137 66.9295 11.734 66.2175 11.734C65.5255 11.754 64.9475 11.157 64.9475 10.407H64.9485ZM66.2185 11.445C66.7565 11.445 67.1795 10.984 67.1795 10.426C67.1795 9.868 66.7375 9.406 66.2175 9.406C65.6795 9.406 65.2565 9.868 65.2565 10.426C65.2565 10.984 65.6785 11.446 66.2175 11.446L66.2185 11.445ZM66.0445 11.003H65.7745V9.83H66.2565C66.3525 9.83 66.4675 9.83 66.5445 9.887C66.6405 9.945 66.6795 10.06 66.6795 10.176C66.6795 10.31 66.6025 10.426 66.4875 10.464L66.6985 10.984H66.4095L66.2375 10.522H66.0445V11.003ZM66.0445 10.349H66.1985C66.2565 10.349 66.3135 10.349 66.3525 10.33C66.3905 10.31 66.4095 10.253 66.4095 10.195C66.4095 10.157 66.3905 10.099 66.3525 10.08C66.3135 10.06 66.2375 10.06 66.1985 10.06H66.0635L66.0445 10.35V10.349ZM46.7705 1.539L46.4235 3.809C45.6735 3.405 45.1155 3.251 44.5195 3.251C42.9415 3.251 41.8255 4.867 41.8255 7.156C41.8255 8.733 42.5755 9.696 43.8075 9.696C44.3275 9.696 44.9045 9.522 45.6155 9.156L45.2505 11.542C44.4615 11.772 43.9605 11.85 43.3645 11.85C41.0765 11.85 39.6525 10.118 39.6525 7.348C39.6525 3.616 41.6145 1 44.4425 1C44.8075 1 45.1345 1.039 45.4045 1.116L46.2885 1.346C46.5195 1.443 46.5785 1.462 46.7705 1.539ZM39.7105 3.097C39.6525 3.077 39.5755 3.077 39.4985 3.077C38.8065 3.077 38.4025 3.443 37.7485 4.463L37.9405 3.173H36.0165L34.7085 11.657H36.8445C37.6135 6.463 37.8055 5.578 38.8245 5.578H38.9785C39.1715 4.559 39.4215 3.808 39.7875 3.116L39.7105 3.097ZM26.9955 11.542C26.4175 11.734 25.9555 11.83 25.4755 11.83C24.3985 11.83 23.8015 11.176 23.8015 9.964C23.8015 9.734 23.8215 9.464 23.8595 9.194L23.9935 8.368L24.0905 7.694L25.0135 1.904H27.1295L26.8795 3.154H27.9765L27.6685 5.214L26.5905 5.213L26.0335 8.753C26.0135 8.906 25.9945 9.022 25.9945 9.098C25.9945 9.541 26.2255 9.733 26.7255 9.733C26.9755 9.733 27.1485 9.714 27.3025 9.656L26.9955 11.542ZM18.6075 5.848C18.6075 6.925 19.1075 7.656 20.2235 8.214C21.0705 8.637 21.2235 8.771 21.2235 9.156C21.2235 9.676 20.8395 9.926 20.0125 9.926C19.3775 9.926 18.8005 9.83 18.1085 9.58L17.8185 11.542L17.9155 11.561L18.3005 11.638C18.4355 11.658 18.6075 11.695 18.8585 11.715C19.3585 11.753 19.7625 11.792 20.0315 11.792C22.2635 11.792 23.3015 10.888 23.3015 8.964C23.3015 7.81 22.8785 7.117 21.8015 6.598C20.9165 6.175 20.8195 6.078 20.8195 5.674C20.8195 5.213 21.1665 4.982 21.8595 4.982C22.2825 4.982 22.8395 5.04 23.3795 5.117L23.6865 3.155C23.1285 3.058 22.3015 2.982 21.8205 2.982C19.4165 2.982 18.5885 4.27 18.6075 5.848ZM63.7165 11.638H61.6965L61.7935 10.811C61.2165 11.465 60.6005 11.753 59.8315 11.753C58.2735 11.753 57.2535 10.349 57.2535 8.233C57.2535 5.405 58.8315 3.02 60.7165 3.02C61.5435 3.02 62.1585 3.385 62.7555 4.174L63.2165 1.192H65.3135L63.7175 11.638H63.7165ZM60.5815 9.656C61.5815 9.656 62.2745 8.483 62.2745 6.79C62.2745 5.713 61.8705 5.117 61.1395 5.117C60.1775 5.117 59.4855 6.31 59.4855 7.964C59.4855 9.079 59.8505 9.656 60.5815 9.656ZM33.7275 11.465C32.9975 11.695 32.3045 11.811 31.5345 11.811C29.1685 11.811 27.9185 10.503 27.9185 8.002C27.9185 5.079 29.4955 2.943 31.6305 2.943C33.3805 2.943 34.4975 4.155 34.4975 6.04C34.4975 6.656 34.4205 7.271 34.2275 8.137H29.9955C29.9765 8.272 29.9765 8.329 29.9765 8.407C29.9765 9.407 30.6115 9.907 31.8425 9.907C32.5925 9.907 33.2855 9.733 34.0545 9.368L33.7275 11.465ZM32.5355 6.405C32.5545 6.232 32.5545 6.079 32.5545 5.982C32.5545 5.29 32.1885 4.886 31.5545 4.886C30.8805 4.886 30.3995 5.425 30.2075 6.406H32.5355V6.405ZM10.0675 11.638H7.95154L9.16354 3.616L6.43154 11.638H4.98854L4.81554 3.674L3.52654 11.638H1.54554L3.19954 1.212H6.25854L6.33554 7.675L8.41254 1.212H11.7215L10.0675 11.638ZM15.5495 7.867C15.3195 7.848 15.2225 7.829 15.0695 7.829C13.8565 7.829 13.2595 8.272 13.2595 9.118C13.2595 9.638 13.5685 9.983 14.0295 9.983C14.8765 9.983 15.5115 9.118 15.5495 7.867ZM17.0885 11.638H15.3185L15.3575 10.753C14.8185 11.465 14.1075 11.773 13.1255 11.773C11.9715 11.773 11.1825 10.83 11.1825 9.464C11.1825 7.387 12.5675 6.194 14.9145 6.194C15.1645 6.194 15.4725 6.214 15.7805 6.252C15.8385 5.963 15.8575 5.848 15.8575 5.694C15.8575 5.136 15.4915 4.924 14.4915 4.924C13.8955 4.924 13.2025 5.021 12.7215 5.174L12.4515 5.27L12.2605 5.328L12.5485 3.424C13.6065 3.097 14.3185 2.962 15.0885 2.962C16.9155 2.962 17.8765 3.828 17.8765 5.444C17.8765 5.867 17.8385 6.174 17.7035 7.136L17.2805 10.156L17.2035 10.696L17.1465 11.119L17.1075 11.426L17.0875 11.638H17.0885ZM50.4435 7.867C50.2325 7.848 50.1165 7.829 49.9635 7.829C48.7515 7.829 48.1355 8.272 48.1355 9.118C48.1355 9.638 48.4435 9.983 48.9055 9.983C49.7705 9.983 50.4055 9.118 50.4435 7.867ZM51.9835 11.638H50.2135L50.2515 10.753C49.7135 11.465 49.0015 11.773 48.0205 11.773C46.8665 11.773 46.0775 10.83 46.0775 9.464C46.0775 7.387 47.4625 6.194 49.8095 6.194C50.0395 6.194 50.3665 6.214 50.6745 6.252C50.7325 5.963 50.7515 5.848 50.7515 5.694C50.7515 5.136 50.3865 4.924 49.3865 4.924C48.7895 4.924 48.0965 5.021 47.6165 5.174L47.3085 5.251L47.1165 5.309L47.4045 3.405C48.4625 3.078 49.1745 2.943 49.9445 2.943C51.7715 2.943 52.7335 3.809 52.7335 5.425C52.7335 5.848 52.6945 6.155 52.5605 7.117L52.1175 10.118L52.0595 10.657L52.0025 11.08L51.9635 11.369L51.9835 11.638ZM57.9265 3.097C57.8695 3.077 57.7925 3.077 57.7155 3.077C57.0225 3.077 56.6195 3.443 55.9655 4.463L56.1575 3.173H54.2335L52.9255 11.657H55.0605C55.8305 6.463 56.0225 5.578 57.0425 5.578H57.1965C57.3885 4.559 57.6575 3.808 58.0035 3.116L57.9265 3.097ZM49.0015 19.89C49.0015 21.814 48.4055 22.949 47.4625 22.949C46.7705 22.968 46.3665 22.199 46.3665 21.064C46.3665 19.717 46.9815 18.178 47.9435 18.178C48.7315 18.178 49.0015 19.005 49.0015 19.89ZM51.0985 19.91C51.0985 17.774 50.0395 16.1 48.0585 16.1C45.7695 16.1 44.2885 18.12 44.2885 21.102C44.2885 23.237 45.1735 24.988 47.3285 24.988C49.5015 24.988 51.0985 23.449 51.0985 19.909V19.91ZM44.9615 14.62L44.6345 16.89C43.9225 16.485 43.4225 16.331 42.8645 16.331C41.3845 16.331 40.3445 17.947 40.3445 20.236C40.3445 21.814 41.0375 22.776 42.1915 22.776C42.6915 22.776 43.2305 22.603 43.8845 22.237L43.5385 24.622C42.8075 24.853 42.3265 24.93 41.7685 24.93C39.6335 24.93 38.2865 23.199 38.2865 20.429C38.2865 16.697 40.1335 14.081 42.7685 14.081C43.1145 14.081 43.4035 14.119 43.6535 14.196L44.4615 14.427C44.7315 14.504 44.7885 14.523 44.9615 14.619V14.62ZM31.8235 16.158C31.7655 16.139 31.6885 16.139 31.6115 16.139C30.9575 16.139 30.5915 16.505 29.9765 17.524L30.1695 16.235H28.3795L27.1675 24.718H29.1495C29.8615 19.525 30.0535 18.64 30.9965 18.64C31.0535 18.64 31.0535 18.64 31.1505 18.66C31.3225 17.64 31.5735 16.89 31.9005 16.197L31.8235 16.158ZM57.7535 24.642H55.8685L55.9645 23.814C55.4265 24.468 54.8495 24.757 54.1185 24.757C52.6755 24.757 51.7135 23.353 51.7135 21.237C51.7135 18.409 53.1945 16.024 54.9455 16.024C55.7145 16.024 56.3115 16.389 56.8495 17.197L57.2925 14.215H59.2545L57.7545 24.642H57.7535ZM54.8115 22.64C55.7545 22.64 56.3895 21.467 56.3895 19.774C56.3895 18.697 56.0235 18.12 55.3315 18.12C54.4275 18.12 53.7915 19.293 53.7915 20.966C53.7915 22.082 54.1385 22.64 54.8115 22.64ZM13.2025 24.603C12.5295 24.833 11.8755 24.949 11.1635 24.949C8.95154 24.949 7.79754 23.641 7.79754 21.14C7.79754 18.236 9.27854 16.081 11.2595 16.081C12.8945 16.081 13.9335 17.274 13.9335 19.179C13.9335 19.794 13.8565 20.409 13.6835 21.275H9.74054C9.72054 21.41 9.72054 21.468 9.72054 21.545C9.72054 22.525 10.3175 23.025 11.4715 23.025C12.1825 23.025 12.8175 22.853 13.5295 22.487L13.2025 24.603ZM12.0865 19.543C12.0865 19.371 12.1065 19.217 12.1065 19.121C12.1065 18.428 11.7595 18.024 11.1635 18.024C10.5285 18.024 10.0865 18.563 9.89354 19.544H12.0865V19.543ZM36.8245 24.603C36.1515 24.833 35.4975 24.949 34.7855 24.949C32.5545 24.949 31.4005 23.641 31.4005 21.14C31.4005 18.236 32.8805 16.081 34.8625 16.081C36.4975 16.081 37.5555 17.274 37.5555 19.179C37.5555 19.794 37.4785 20.409 37.3055 21.275H33.3625C33.3425 21.41 33.3425 21.468 33.3425 21.545C33.3425 22.525 33.9395 23.025 35.0935 23.025C35.8055 23.025 36.4405 22.853 37.1515 22.487L36.8245 24.603ZM35.7095 19.543C35.7285 19.371 35.7285 19.217 35.7285 19.121C35.7285 18.428 35.3815 18.024 34.7855 18.024C34.1505 18.024 33.7085 18.563 33.5155 19.544H35.7095V19.543ZM64.5255 24.603C63.8325 24.833 63.1785 24.949 62.4855 24.949C60.2735 24.949 59.1005 23.641 59.1005 21.14C59.1005 18.236 60.5815 16.081 62.5825 16.081C64.2175 16.081 65.2565 17.274 65.2565 19.179C65.2565 19.794 65.1795 20.409 65.0065 21.275H61.0615C61.0415 21.41 61.0415 21.468 61.0415 21.545C61.0415 22.525 61.6385 23.025 62.7925 23.025C63.5045 23.025 64.1395 22.853 64.8515 22.487L64.5245 24.603H64.5255ZM63.4095 19.543C63.4095 19.371 63.4295 19.217 63.4295 19.121C63.4295 18.428 63.0825 18.024 62.4855 18.024C61.8505 18.024 61.4085 18.563 61.2155 19.544H63.4095V19.543ZM7.31654 16.543C6.93154 16.273 6.39354 16.063 5.66254 16.063C4.85454 16.063 4.21954 16.235 4.21954 17.081C4.21954 18.582 7.14354 18.024 7.14354 21.256C7.14354 24.199 5.21954 24.968 3.46954 24.968C2.69954 24.968 1.79554 24.718 1.14154 24.41L1.62154 22.256C2.02654 22.622 2.81554 22.872 3.48854 22.872C4.12354 22.872 5.08454 22.699 5.08454 21.602C5.08454 19.89 2.16154 20.525 2.16154 17.524C2.16154 14.774 3.87354 13.965 5.52754 13.965C6.45054 13.965 7.33554 14.1 7.83554 14.446L7.31554 16.543H7.31654ZM19.0115 24.603C18.6075 24.795 18.0505 24.93 17.2415 24.93C15.5115 24.93 14.4335 23.199 14.4335 21.083C14.4335 18.313 15.9915 16.12 18.2805 16.12C18.7805 16.12 19.5505 16.332 20.1465 16.678L19.7045 18.698C19.2815 18.409 18.8385 18.236 18.3775 18.236C17.3185 18.236 16.5495 19.217 16.5495 20.948C16.5495 21.948 17.1075 22.776 17.9735 22.776C18.4935 22.776 18.8575 22.66 19.3005 22.41L19.0125 24.603H19.0115ZM26.4375 22.468C26.3415 23.198 26.2445 23.911 26.1875 24.661H24.2815L24.4355 23.295H24.4155C23.8205 24.218 23.2045 24.853 22.1075 24.853C20.9155 24.853 20.2615 23.583 20.2615 21.949C20.2615 21.371 20.2995 21.064 20.4155 20.179L20.9545 16.255H23.0885L22.5125 20.198C22.4545 20.621 22.3775 21.044 22.3775 21.487C22.3775 21.987 22.6075 22.487 23.1855 22.449C24.0515 22.449 24.5705 21.391 24.7245 20.14L25.3205 16.255H27.3785L26.4365 22.468H26.4375ZM66.5065 24.565H66.1795V23.16H65.7175V22.853H66.9675V23.16H66.5065V24.565ZM68.6415 24.565H68.3335V23.141L68.0455 24.565H67.7375L67.4495 23.141V24.565H67.1415V22.853H67.6215L67.8915 24.199H67.9105L68.1795 22.853H68.6415V24.565Z" fill="#D3A562"/>
</g>
<defs>
<clipPath id="clip0_3459_987">
<rect width="68" height="25" fill="white" transform="translate(0.965515 0.5)"/>
</clipPath>
</defs>
</svg>
