<svg width="40" height="40" viewBox="0 0 40 40" fill="none" xmlns="http://www.w3.org/2000/svg">
<rect x="0.0203247" width="39.9797" height="40" rx="12" fill="#F8F3EC"/>
<g clip-path="url(#clip0_3288_78)">
<path d="M19.011 10C23.9748 10 28.0034 14.032 28.0034 19C28.0034 23.968 23.9748 28 19.011 28C14.0472 28 10.0186 23.968 10.0186 19C10.0186 14.032 14.0472 10 19.011 10ZM19.011 26C22.8747 26 26.0051 22.867 26.0051 19C26.0051 15.132 22.8747 12 19.011 12C15.1463 12 12.0169 15.132 12.0169 19C12.0169 22.867 15.1463 26 19.011 26ZM27.4888 26.071L30.3154 28.899L28.9016 30.314L26.076 27.485L27.4888 26.071Z" fill="#322E29"/>
</g>
<defs>
<clipPath id="clip0_3288_78">
<rect width="23.9797" height="24" fill="white" transform="translate(8.02032 8)"/>
</clipPath>
</defs>
</svg>
