<svg width="68" height="40" viewBox="0 0 68 40" fill="none" xmlns="http://www.w3.org/2000/svg">
<g clip-path="url(#clip0_3459_981)">
<path fill-rule="evenodd" clip-rule="evenodd" d="M58.3545 26.2829C58.2615 27.0279 58.1395 27.7429 57.9885 28.4279C57.3525 28.2209 56.6185 27.8879 55.5815 27.9579C54.9625 27.9979 54.2315 28.2359 54.2215 28.7939C54.2095 29.4119 55.2255 29.7799 55.7915 30.0499C56.8095 30.5379 57.9035 31.1869 57.9885 32.5099C58.0535 33.5249 57.5815 34.4099 57.0465 34.9159C55.6205 36.2639 52.4565 36.4059 50.2965 35.5439C50.4315 34.8239 50.5535 34.0919 50.6635 33.3459C51.4995 33.7019 52.6475 34.1819 53.9075 34.0259C54.4805 33.9559 55.1835 33.6209 55.1625 33.0329C55.1375 32.3149 53.7975 31.8869 53.1225 31.5149C52.3375 31.0829 51.4445 30.3629 51.3955 29.2649C51.3635 28.5339 51.6475 27.8489 52.0235 27.3819C53.1385 25.9959 56.0035 25.5039 58.3545 26.2829ZM32.7115 12.2709H35.5955L33.8195 23.4649H30.9345L32.7115 12.2709ZM25.2475 14.4959L24.8015 17.3049H25.6355C26.4455 17.3049 27.2135 16.6729 27.3415 15.8999C27.4685 15.1279 26.9085 14.4959 26.0985 14.4959H25.2475ZM22.7155 12.2699H27.1325C29.9425 12.2699 30.6725 13.8879 30.3655 15.8209C30.1095 17.4349 28.9495 18.5129 27.4435 18.8959L30.2415 23.4649H26.6195L24.5215 19.0689L23.8245 23.4649H20.9385L22.7155 12.2699ZM45.8855 12.2709H48.7705L46.9945 23.4649H44.1095L45.8855 12.2709ZM50.9625 12.2699H57.2965L56.9095 14.7039H53.4615L53.1575 16.6169H56.4365L56.0505 19.0509H52.7715L52.4575 21.0309H55.9065L55.5195 23.4649H49.1865L50.9625 12.2699ZM14.6665 12.2699H20.9995L20.6135 14.7039H17.1655L16.8615 16.6169H20.1395L19.7535 19.0509H16.4755L16.1615 21.0309H19.6095L19.2235 23.4649H12.8895L14.6665 12.2699ZM37.7805 12.2699H44.1855L43.7995 14.7039H40.2795L39.9705 16.6169H43.1735L42.7865 19.0509H39.5845L38.8845 23.4649H36.0035L37.7805 12.2699ZM61.4915 14.7039H62.0885C64.2935 14.7039 65.1555 16.2589 64.9185 17.7599C64.5985 19.7729 63.1515 21.0299 61.2595 21.0299H60.4885L61.4925 14.7039H61.4915ZM58.9935 12.2699H62.7535C67.2325 12.2699 68.2535 15.6579 67.9025 17.8699C67.4005 21.0299 64.5825 23.4649 60.9775 23.4649H57.2175L58.9935 12.2699ZM1.14154 10.7449H6.47854L7.11254 18.8779C10.6415 12.7659 14.2315 6.88491 17.8475 1.10791H19.5875C15.7605 8.48791 11.9815 15.9169 8.32254 23.4649H4.40454L3.44954 14.4949C3.21154 12.2699 2.76154 11.3259 1.14154 11.0859V10.7459" fill="#D3A562"/>
<path fill-rule="evenodd" clip-rule="evenodd" d="M3.16256 6.11991L7.71256 8.04891L8.10756 13.1159H8.44456L12.5746 6.12291V5.77191H3.16156L3.16256 6.11991ZM21.8686 26.0969H23.7356L23.1056 30.5089C23.6396 29.9939 24.2916 29.6759 25.0206 29.6759C26.5186 29.6759 27.5006 31.1189 27.2366 32.9009C26.9716 34.6829 25.5596 36.1279 24.0616 36.1279C23.3226 36.1279 22.7936 35.7949 22.4316 35.2349L22.3326 35.9349H20.4656L21.8686 26.0969ZM24.1986 31.4829C24.8886 31.4829 25.3576 32.1149 25.2456 32.8949C25.1336 33.6729 24.4846 34.3049 23.7946 34.3049C23.1046 34.3049 22.6356 33.6729 22.7476 32.8949C22.8596 32.1149 23.5096 31.4829 24.1986 31.4829Z" fill="#D3A562"/>
<path fill-rule="evenodd" clip-rule="evenodd" d="M27.3966 29.8259H29.6376L30.6396 32.9529L32.5856 29.8259H34.7516L29.0686 38.9529H26.9036L29.2996 35.1049L27.3966 29.8259ZM45.8846 35.9319L47.5256 26.0939H50.2106L48.5696 35.9319H45.8846ZM43.6406 26.0739C42.7146 28.2529 41.9256 30.5679 40.9726 32.7189L40.6926 31.4279L40.6886 31.4119L40.7356 31.6419C40.5286 30.9629 40.1756 30.3219 39.7256 29.7349L39.6896 29.6899C39.6116 29.5879 39.5276 29.4899 39.4436 29.3919C39.3916 29.3319 39.3396 29.2729 39.2856 29.2139C38.6356 28.5029 37.8476 27.8889 37.0156 27.4029L39.4026 35.9099H42.2806C43.6346 32.5899 45.0966 29.3789 46.4656 26.0739H43.6416" fill="#D3A562"/>
<path fill-rule="evenodd" clip-rule="evenodd" d="M38.5726 26.0749H34.1826V26.2889C36.7106 26.7819 39.9006 28.9019 40.7356 31.6419L39.7936 27.0599C39.6636 26.3539 39.1726 26.0749 38.5736 26.0749H38.5726ZM63.3316 28.7999L61.9646 32.4569H64.1746L63.3316 28.7989V28.7999ZM67.4066 35.9629H64.9466C64.7876 35.4929 64.7436 34.9099 64.5806 34.4449H61.2326L60.6046 35.9629H57.7786L61.4416 27.5389C61.6036 27.1689 61.8946 26.6649 62.0166 26.4389C62.2036 26.0989 62.9226 26.0739 63.2286 26.0739H65.2606L67.4066 35.9629Z" fill="#D3A562"/>
</g>
<defs>
<clipPath id="clip0_3459_981">
<rect width="67" height="39" fill="white" transform="translate(0.965515 0.5)"/>
</clipPath>
</defs>
</svg>
