<svg width="48" height="49" viewBox="0 0 48 49" fill="none" xmlns="http://www.w3.org/2000/svg">
<path d="M43.086 13.496C44 17.06 44 24.5 44 24.5C44 24.5 44 31.94 43.086 35.504C42.578 37.474 41.092 39.024 39.21 39.548C35.792 40.5 24 40.5 24 40.5C24 40.5 12.214 40.5 8.79 39.548C6.9 39.016 5.416 37.468 4.914 35.504C4 31.94 4 24.5 4 24.5C4 24.5 4 17.06 4.914 13.496C5.422 11.526 6.908 9.976 8.79 9.452C12.214 8.5 24 8.5 24 8.5C24 8.5 35.792 8.5 39.21 9.452C41.1 9.984 42.584 11.532 43.086 13.496ZM20 31.5L32 24.5L20 17.5V31.5Z" fill="#D3A562"/>
</svg>
